<mxfile host="app.diagrams.net" modified="2023-04-29T18:30:02.366Z" agent="Mozilla/5.0 (Windows NT 10.0; Win64; x64) AppleWebKit/537.36 (KHTML, like Gecko) Chrome/112.0.0.0 Safari/537.36" etag="LAKb-60V45Jx-zTEHr71" version="21.2.3" type="device">
  <diagram name="Page-1" id="YsmSb8oXp7-BeTTOK-Az">
    <mxGraphModel dx="1434" dy="1864" grid="1" gridSize="10" guides="1" tooltips="1" connect="1" arrows="1" fold="1" page="1" pageScale="1" pageWidth="850" pageHeight="1100" math="0" shadow="0">
      <root>
        <mxCell id="0" />
        <mxCell id="1" parent="0" />
        <mxCell id="ZF2VMzGwXf76nn_oSSuA-7" value="" style="rounded=1;arcSize=10;dashed=0;fillColor=none;gradientColor=none;strokeWidth=2;" parent="1" vertex="1">
          <mxGeometry x="540" y="10" width="660" height="590" as="geometry" />
        </mxCell>
        <mxCell id="ZF2VMzGwXf76nn_oSSuA-15" style="edgeStyle=orthogonalEdgeStyle;rounded=0;orthogonalLoop=1;jettySize=auto;html=1;" parent="1" source="65XbqvCXqf-j7OpNXFGQ-1" target="ZF2VMzGwXf76nn_oSSuA-3" edge="1">
          <mxGeometry relative="1" as="geometry" />
        </mxCell>
        <mxCell id="65XbqvCXqf-j7OpNXFGQ-1" value="" style="shape=image;html=1;verticalAlign=top;verticalLabelPosition=bottom;labelBackgroundColor=#ffffff;imageAspect=0;aspect=fixed;image=https://cdn1.iconfinder.com/data/icons/unicons-line-vol-3/24/discord-128.png" parent="1" vertex="1">
          <mxGeometry x="110" y="170" width="128" height="128" as="geometry" />
        </mxCell>
        <mxCell id="ZF2VMzGwXf76nn_oSSuA-2" value="Discord Client" style="text;strokeColor=none;fillColor=none;html=1;fontSize=24;fontStyle=1;verticalAlign=middle;align=center;" parent="1" vertex="1">
          <mxGeometry x="124" y="290" width="100" height="40" as="geometry" />
        </mxCell>
        <mxCell id="ZF2VMzGwXf76nn_oSSuA-16" style="edgeStyle=orthogonalEdgeStyle;rounded=0;orthogonalLoop=1;jettySize=auto;html=1;" parent="1" source="ZF2VMzGwXf76nn_oSSuA-3" target="ZF2VMzGwXf76nn_oSSuA-6" edge="1">
          <mxGeometry relative="1" as="geometry" />
        </mxCell>
        <mxCell id="ZF2VMzGwXf76nn_oSSuA-3" value="" style="shape=image;html=1;verticalAlign=top;verticalLabelPosition=bottom;labelBackgroundColor=#ffffff;imageAspect=0;aspect=fixed;image=https://cdn0.iconfinder.com/data/icons/social-media-2346/512/Discord-01-128.png" parent="1" vertex="1">
          <mxGeometry x="330" y="170" width="128" height="128" as="geometry" />
        </mxCell>
        <mxCell id="ZF2VMzGwXf76nn_oSSuA-4" value="Discord Server" style="text;strokeColor=none;fillColor=none;html=1;fontSize=24;fontStyle=1;verticalAlign=middle;align=center;" parent="1" vertex="1">
          <mxGeometry x="344" y="290" width="100" height="40" as="geometry" />
        </mxCell>
        <mxCell id="ZF2VMzGwXf76nn_oSSuA-17" style="edgeStyle=orthogonalEdgeStyle;rounded=0;orthogonalLoop=1;jettySize=auto;html=1;" parent="1" source="ZF2VMzGwXf76nn_oSSuA-6" target="ZF2VMzGwXf76nn_oSSuA-10" edge="1">
          <mxGeometry relative="1" as="geometry" />
        </mxCell>
        <mxCell id="ZF2VMzGwXf76nn_oSSuA-6" value="" style="sketch=0;outlineConnect=0;fontColor=#232F3E;gradientColor=none;fillColor=#D45B07;strokeColor=none;dashed=0;verticalLabelPosition=bottom;verticalAlign=top;align=center;html=1;fontSize=12;fontStyle=0;aspect=fixed;pointerEvents=1;shape=mxgraph.aws4.lambda_function;" parent="1" vertex="1">
          <mxGeometry x="600" y="183" width="102" height="102" as="geometry" />
        </mxCell>
        <mxCell id="ZF2VMzGwXf76nn_oSSuA-8" value="" style="dashed=0;html=1;shape=mxgraph.aws3.cloud;fillColor=#F58536;gradientColor=none;dashed=0;" parent="1" vertex="1">
          <mxGeometry x="580" y="-10" width="52" height="36" as="geometry" />
        </mxCell>
        <mxCell id="ZF2VMzGwXf76nn_oSSuA-9" value="&lt;font style=&quot;font-size: 20px;&quot;&gt;Discord Interaction &lt;br&gt;Endpoint&lt;/font&gt;" style="text;strokeColor=none;fillColor=none;html=1;fontSize=24;fontStyle=1;verticalAlign=middle;align=center;" parent="1" vertex="1">
          <mxGeometry x="571" y="298" width="160" height="40" as="geometry" />
        </mxCell>
        <mxCell id="ZF2VMzGwXf76nn_oSSuA-18" style="edgeStyle=orthogonalEdgeStyle;rounded=0;orthogonalLoop=1;jettySize=auto;html=1;entryX=1;entryY=0.5;entryDx=0;entryDy=0;entryPerimeter=0;" parent="1" source="ZF2VMzGwXf76nn_oSSuA-10" target="ZF2VMzGwXf76nn_oSSuA-12" edge="1">
          <mxGeometry relative="1" as="geometry">
            <Array as="points">
              <mxPoint x="1000" y="234" />
              <mxPoint x="1000" y="467" />
            </Array>
          </mxGeometry>
        </mxCell>
        <mxCell id="ZF2VMzGwXf76nn_oSSuA-20" style="edgeStyle=orthogonalEdgeStyle;rounded=0;orthogonalLoop=1;jettySize=auto;html=1;entryX=0.5;entryY=1;entryDx=0;entryDy=0;" parent="1" source="ZF2VMzGwXf76nn_oSSuA-10" target="ZF2VMzGwXf76nn_oSSuA-2" edge="1">
          <mxGeometry relative="1" as="geometry">
            <Array as="points">
              <mxPoint x="1000" y="234" />
              <mxPoint x="1000" y="400" />
              <mxPoint x="174" y="400" />
            </Array>
          </mxGeometry>
        </mxCell>
        <mxCell id="ZF2VMzGwXf76nn_oSSuA-10" value="" style="sketch=0;outlineConnect=0;fontColor=#232F3E;gradientColor=none;fillColor=#D45B07;strokeColor=none;dashed=0;verticalLabelPosition=bottom;verticalAlign=top;align=center;html=1;fontSize=12;fontStyle=0;aspect=fixed;pointerEvents=1;shape=mxgraph.aws4.lambda_function;" parent="1" vertex="1">
          <mxGeometry x="830" y="183" width="102" height="102" as="geometry" />
        </mxCell>
        <mxCell id="ZF2VMzGwXf76nn_oSSuA-11" value="&lt;font style=&quot;font-size: 20px;&quot;&gt;Discord Commands&lt;br&gt;Processing&lt;/font&gt;" style="text;strokeColor=none;fillColor=none;html=1;fontSize=24;fontStyle=1;verticalAlign=middle;align=center;" parent="1" vertex="1">
          <mxGeometry x="801" y="298" width="160" height="40" as="geometry" />
        </mxCell>
        <mxCell id="ZF2VMzGwXf76nn_oSSuA-22" style="edgeStyle=orthogonalEdgeStyle;rounded=0;orthogonalLoop=1;jettySize=auto;html=1;entryX=0.5;entryY=1;entryDx=0;entryDy=0;" parent="1" source="ZF2VMzGwXf76nn_oSSuA-12" target="ZF2VMzGwXf76nn_oSSuA-2" edge="1">
          <mxGeometry relative="1" as="geometry" />
        </mxCell>
        <mxCell id="xXOZJRdXw_6ft6CHURVy-6" style="edgeStyle=orthogonalEdgeStyle;rounded=0;orthogonalLoop=1;jettySize=auto;html=1;entryX=1;entryY=0.5;entryDx=0;entryDy=0;startArrow=classic;startFill=1;" parent="1" source="ZF2VMzGwXf76nn_oSSuA-12" target="xXOZJRdXw_6ft6CHURVy-4" edge="1">
          <mxGeometry relative="1" as="geometry">
            <Array as="points">
              <mxPoint x="590" y="480" />
              <mxPoint x="590" y="540" />
            </Array>
          </mxGeometry>
        </mxCell>
        <mxCell id="C-j-M6kf6FVyRcMuhk3A-6" style="edgeStyle=orthogonalEdgeStyle;rounded=0;orthogonalLoop=1;jettySize=auto;html=1;entryX=0;entryY=0.75;entryDx=0;entryDy=0;entryPerimeter=0;" edge="1" parent="1" source="ZF2VMzGwXf76nn_oSSuA-12" target="C-j-M6kf6FVyRcMuhk3A-1">
          <mxGeometry relative="1" as="geometry">
            <Array as="points">
              <mxPoint x="970" y="486" />
              <mxPoint x="970" y="486" />
            </Array>
          </mxGeometry>
        </mxCell>
        <mxCell id="ZF2VMzGwXf76nn_oSSuA-12" value="" style="outlineConnect=0;dashed=0;verticalLabelPosition=bottom;verticalAlign=top;align=center;html=1;shape=mxgraph.aws3.ec2;fillColor=#F58534;gradientColor=none;" parent="1" vertex="1">
          <mxGeometry x="850" y="420" width="76.5" height="93" as="geometry" />
        </mxCell>
        <mxCell id="ZF2VMzGwXf76nn_oSSuA-13" value="EC2" style="text;strokeColor=none;fillColor=none;html=1;fontSize=24;fontStyle=1;verticalAlign=middle;align=center;" parent="1" vertex="1">
          <mxGeometry x="838.25" y="520" width="100" height="40" as="geometry" />
        </mxCell>
        <mxCell id="xXOZJRdXw_6ft6CHURVy-2" style="edgeStyle=orthogonalEdgeStyle;rounded=0;orthogonalLoop=1;jettySize=auto;html=1;" parent="1" source="xXOZJRdXw_6ft6CHURVy-1" target="ZF2VMzGwXf76nn_oSSuA-3" edge="1">
          <mxGeometry relative="1" as="geometry">
            <mxPoint x="580" y="81" as="sourcePoint" />
          </mxGeometry>
        </mxCell>
        <mxCell id="xXOZJRdXw_6ft6CHURVy-1" value="" style="sketch=0;outlineConnect=0;fontColor=#232F3E;gradientColor=none;fillColor=#D45B07;strokeColor=none;dashed=0;verticalLabelPosition=bottom;verticalAlign=top;align=center;html=1;fontSize=12;fontStyle=0;aspect=fixed;pointerEvents=1;shape=mxgraph.aws4.lambda_function;" parent="1" vertex="1">
          <mxGeometry x="720" y="28" width="102" height="102" as="geometry" />
        </mxCell>
        <mxCell id="xXOZJRdXw_6ft6CHURVy-3" value="&lt;font style=&quot;font-size: 20px;&quot;&gt;Commands Registration&lt;/font&gt;" style="text;strokeColor=none;fillColor=none;html=1;fontSize=24;fontStyle=1;verticalAlign=middle;align=center;" parent="1" vertex="1">
          <mxGeometry x="670.5" y="130" width="201" height="40" as="geometry" />
        </mxCell>
        <mxCell id="xXOZJRdXw_6ft6CHURVy-4" value="" style="shape=image;html=1;verticalAlign=top;verticalLabelPosition=bottom;labelBackgroundColor=#ffffff;imageAspect=0;aspect=fixed;image=https://cdn2.iconfinder.com/data/icons/perqui/48/minecraft.png" parent="1" vertex="1">
          <mxGeometry x="310" y="490" width="100" height="100" as="geometry" />
        </mxCell>
        <mxCell id="xXOZJRdXw_6ft6CHURVy-8" value="Game Clients" style="text;strokeColor=none;fillColor=none;html=1;fontSize=24;fontStyle=1;verticalAlign=middle;align=center;" parent="1" vertex="1">
          <mxGeometry x="310" y="600" width="100" height="40" as="geometry" />
        </mxCell>
        <mxCell id="C-j-M6kf6FVyRcMuhk3A-1" value="" style="sketch=0;points=[[0,0,0],[0.25,0,0],[0.5,0,0],[0.75,0,0],[1,0,0],[0,1,0],[0.25,1,0],[0.5,1,0],[0.75,1,0],[1,1,0],[0,0.25,0],[0,0.5,0],[0,0.75,0],[1,0.25,0],[1,0.5,0],[1,0.75,0]];outlineConnect=0;fontColor=#232F3E;gradientColor=#60A337;gradientDirection=north;fillColor=#277116;strokeColor=#ffffff;dashed=0;verticalLabelPosition=bottom;verticalAlign=top;align=center;html=1;fontSize=12;fontStyle=0;aspect=fixed;shape=mxgraph.aws4.resourceIcon;resIcon=mxgraph.aws4.s3;" vertex="1" parent="1">
          <mxGeometry x="1080" y="427.5" width="78" height="78" as="geometry" />
        </mxCell>
        <mxCell id="C-j-M6kf6FVyRcMuhk3A-7" value="S3" style="text;strokeColor=none;fillColor=none;html=1;fontSize=24;fontStyle=1;verticalAlign=middle;align=center;" vertex="1" parent="1">
          <mxGeometry x="1069" y="520" width="100" height="40" as="geometry" />
        </mxCell>
      </root>
    </mxGraphModel>
  </diagram>
</mxfile>
